<?xml version="1.0" encoding="UTF-8" standalone="no"?>
<!-- Created with Inkscape (http://www.inkscape.org/) -->

<svg
   version="1.1"
   id="svg1"
   width="846.71967"
   height="217.83298"
   viewBox="0 0 846.71967 217.83298"
   sodipodi:docname="stagium.svg"
   inkscape:version="1.4.3 (0d15f75042, 2025-12-25)"
   xml:space="preserve"
   xmlns:inkscape="http://www.inkscape.org/namespaces/inkscape"
   xmlns:sodipodi="http://sodipodi.sourceforge.net/DTD/sodipodi-0.dtd"
   xmlns="http://www.w3.org/2000/svg"
   xmlns:svg="http://www.w3.org/2000/svg"><defs
     id="defs1" /><sodipodi:namedview
     id="namedview1"
     pagecolor="#ffffff"
     bordercolor="#000000"
     borderopacity="0.25"
     inkscape:showpageshadow="2"
     inkscape:pageopacity="0.0"
     inkscape:pagecheckerboard="0"
     inkscape:deskcolor="#d1d1d1"
     inkscape:zoom="1.6067578"
     inkscape:cx="488.56149"
     inkscape:cy="64.415432"
     inkscape:window-width="2560"
     inkscape:window-height="1600"
     inkscape:window-x="0"
     inkscape:window-y="0"
     inkscape:window-maximized="1"
     inkscape:current-layer="g1" /><g
     inkscape:groupmode="layer"
     inkscape:label="Image"
     id="g1"
     transform="translate(153.06834,64.539304)"><g
       id="g2"><path
         style="fill:#7c3aed;fill-opacity:1;stroke-width:0.212321"
         d="m 143.15818,57.804276 -0.0541,-20.966656 -17.99417,-0.05428 -17.99417,-0.05428 v -8.385463 -8.385464 h 47.34749 47.34749 v 8.386663 8.386662 h -18.4719 -18.47189 V 57.751196 78.770933 H 154.03961 143.2123 Z"
         id="path42" /><path
         style="fill:#7c3aed;fill-opacity:1;stroke-width:0.424641"
         d="m -1.2739233,152.63668 c -0.700658,-0.35945 -7.630729,-6.9986 -15.4001547,-14.75367 -15.299825,-15.27155 -15.581973,-15.6371 -14.244617,-18.45537 l 0.688454,-1.4508 -2.984905,-2.98491 -2.984904,-2.9849 -2.707393,2.10026 c -5.227609,4.05534 -10.233941,6.62125 -16.445261,8.42875 -5.066329,1.47431 -8.396225,1.92163 -14.246663,1.91383 -13.197236,-0.0176 -25.245006,-5.04322 -34.659813,-14.45803 -9.627,-9.627 -14.57872,-21.749006 -14.48805,-35.467319 0.1512,-22.87699 15.53205,-42.137991 38.24891,-47.898019 3.109025,-0.788316 4.781037,-0.919267 11.494134,-0.900211 7.201587,0.02044 8.209524,0.119013 12.102273,1.183531 4.831223,1.321154 11.579318,4.399391 15.538872,7.088272 3.462159,2.351109 9.21918,7.883106 11.889791,11.425061 9.335599,12.381543 12.231784,29.945459 7.385745,44.790897 -1.022651,3.132803 -3.988969,9.346612 -5.696905,11.933818 l -0.855291,1.29561 3.280854,3.26161 c 3.270021,3.25084 3.28578,3.2601 4.773633,2.80346 1.143096,-0.35083 1.79565,-0.32416 2.785688,0.11384 1.888206,0.83535 30.541168,30.01268 30.90275,31.46829 0.344872,1.38833 -0.506673,3.26297 -2.003673,4.41099 -0.564574,0.43296 -2.7658156,2.36368 -4.8916414,4.29049 -4.1533769,3.76453 -5.0350639,4.09974 -7.4818329,2.84452 z M -63.483851,112.0896 c 12.036394,-1.89207 22.422055,-9.54789 27.814878,-20.503813 2.886566,-5.864281 3.721708,-9.536234 3.735513,-16.424304 0.0079,-3.942929 -0.209501,-6.637982 -0.696352,-8.63249 -3.319925,-13.600905 -13.765184,-24.311872 -27.244589,-27.937644 -2.70026,-0.726332 -4.616657,-0.915897 -9.342106,-0.9241 -6.94312,-0.01205 -10.486334,0.758357 -16.348684,3.554729 -23.231759,11.081672 -28.488669,42.057828 -10.235312,60.311182 8.41472,8.41472 20.606463,12.39723 32.316652,10.55644 z"
         id="path14" /><path
         style="fill:#7c3aed;fill-opacity:1;stroke-width:0.424641"
         d="m 281.53708,77.50726 c -4.9046,-0.511399 -9.60058,-1.0597 -10.43549,-1.218444 -1.72019,-0.327063 -3.15149,-1.697685 -4.83566,-4.630622 L 265.1077,69.641148 H 242.45825 219.8088 l -2.15253,3.563623 c -1.41427,2.341403 -2.47994,3.644937 -3.10715,3.800712 -1.54996,0.38495 -17.2812,1.206563 -20.20569,1.055301 l -2.69007,-0.139134 19.00843,-28.822914 19.00842,-28.822915 7.46155,0.288145 c 9.10771,0.351715 15.64663,0.916029 17.12431,1.477841 0.6087,0.231429 1.84948,1.433758 2.75729,2.671843 3.67729,5.015162 36.20135,53.165231 36.20135,53.594093 0,0.358427 -1.64342,0.245773 -11.67763,-0.800483 z M 254.82593,55.516498 c 0.48041,-0.481184 -0.53258,-2.355187 -5.33388,-9.867575 -4.65621,-7.285349 -6.12487,-9.129784 -7.26973,-9.129784 -1.04541,0 -2.75874,2.116752 -6.52415,8.060301 -5.67347,8.955351 -6.10101,10.148563 -3.95968,11.050886 1.13073,0.47647 22.60379,0.370601 23.08744,-0.113828 z"
         id="path9" /><path
         style="fill:#7c3aed;fill-opacity:1;stroke-width:0.424641"
         d="m 327.82297,78.34354 c -9.21147,-1.304234 -16.82521,-3.36743 -21.6567,-5.8686 -3.29999,-1.708344 -8.555,-6.946403 -10.09802,-10.065448 -1.83369,-3.706601 -2.55358,-7.921266 -2.28256,-13.36344 0.572,-11.486095 4.82341,-18.679456 13.5299,-22.892495 4.52928,-2.191704 11.48039,-4.257255 17.32257,-5.147475 13.69114,-2.086232 41.71751,-1.708403 51.16926,0.689823 7.53822,1.912702 16.00717,6.055953 19.48273,9.531513 1.99763,1.997623 4.82889,7.286649 5.23271,9.775118 l 0.25507,1.57182 -4.62939,-0.292789 c -6.91696,-0.437467 -15.48875,-1.459963 -18.23438,-2.175108 -1.33687,-0.348212 -3.71808,-1.198152 -5.29155,-1.888756 -6.50126,-2.853421 -12.58056,-3.61353 -26.11543,-3.265276 -17.57036,0.452087 -23.34027,1.837972 -28.09507,6.748204 -2.00903,2.074709 -2.68668,4.03451 -2.68668,7.770063 0,3.942333 0.62848,5.544666 3.10458,7.915204 3.12796,2.994605 6.54252,4.557576 11.60782,5.313331 5.97451,0.891415 40.50166,0.614405 43.67102,-0.350367 3.32738,-1.012881 10.99737,-3.859553 11.44408,-4.247406 0.22187,-0.192643 -6.514,-0.35026 -14.9686,-0.35026 h -15.37201 v -4.246411 -4.246412 h 23.96154 23.96154 l -0.18749,2.229366 c -0.42674,5.073901 -1.02506,18.19237 -1.02506,22.474736 v 4.596137 h -7.80653 -7.80653 l 0.55451,-2.866328 c 0.30498,-1.57648 0.95939,-4.666861 1.45423,-6.867517 1.35375,-6.020312 0.85298,-6.422574 -3.38446,-2.718735 -8.15108,7.124654 -14.65706,10.319238 -24.20142,11.883446 -5.7549,0.943158 -27.12521,1.173072 -32.90968,0.354062 z"
         id="path10" /><path
         style="fill:#7c3aed;fill-opacity:1;stroke-width:0.424641"
         d="M 415.08672,49.258373 V 19.958134 h 10.82835 10.82835 v 29.300239 29.300239 h -10.82835 -10.82835 z"
         id="path11" /><path
         style="fill:#7c3aed;fill-opacity:1;stroke-width:0.424641"
         d="m -113.79243,37.262133 c -5.53767,-6.281937 -8.25611,-16.897949 -7.0464,-27.5175427 0.98789,-8.6724083 2.53548,-12.915246 6.4964,-17.8104883 5.76076,-7.119628 18.724047,-14.168433 30.452358,-16.558511 5.544554,-1.129908 21.861521,-1.230849 28.081091,-0.173717 4.791931,0.814478 10.894534,2.692315 15.254308,4.693914 4.922309,2.259865 14.014602,7.869786 14.014602,8.646975 0,0.660284 -4.064368,20.3212443 -4.489256,21.716325 -0.172247,0.565556 -1.121116,0.05576 -4.806602,-2.5824419 -13.168857,-9.4267265 -26.016192,-12.9462253 -39.814766,-10.9071652 -7.916311,1.1698193 -12.353318,3.21718367 -15.624988,7.209833 -3.71786,4.5371514 -3.76173,13.4492621 -0.0899,18.2632571 l 1.05637,1.384976 -8.54806,6.339633 c -4.701427,3.486801 -9.542987,7.05616 -10.759027,7.931915 l -2.21099,1.592272 z"
         id="path12" /><path
         style="fill:#7c3aed;fill-opacity:1;stroke-width:0.424641"
         d="m -8.9612613,19.851973 c 0.147168,-0.525493 0.763959,-2.904732 1.370644,-5.287198 l 1.103069,-4.331756 -0.896477,-1.1396857 c -1.358979,-1.7276608 -1.026566,-3.7731232 0.85772,-5.2778646 0.765653,-0.6114323 0.799964,-1.3302394 0.693422,-14.5271737 l -0.112093,-13.883914 -8.8898317,3.826785 -8.889833,3.826786 -1.301555,-0.9669 c -7.716541,-5.732465 -17.850691,-10.141011 -28.053947,-12.203995 -13.402138,-2.709762 -30.085486,-1.63859 -42.66253,2.739194 -7.424327,2.584241 -14.756497,6.623706 -18.905507,10.415505 l -1.70349,1.556819 -18.3619,-7.055565 c -10.09905,-3.880564 -18.35869,-7.151114 -18.35477,-7.267891 0.004,-0.116776 18.27338,-7.997793 40.5988,-17.513372 l 40.591663,-17.301051 40.257696,16.66409 c 22.1417317,9.165249 40.1295947,16.794576 39.9730295,16.954059 -0.1565652,0.159483 -2.6732732,1.31536 -5.5926808,2.568616 l -5.308015,2.278647 -0.111778,14.561374 -0.111782,14.5613693 1.067225,1.2683224 c 1.22255,1.4529224 1.379926,3.3036402 0.407163,4.7882666 -0.612524,0.9348257 -0.555758,1.3925077 0.788151,6.3546777 l 1.448213,5.347298 h -5.084093 c -5.068576,0 -5.083273,-0.0029 -4.816513,-0.955443 z"
         id="path13" /><path
         style="fill:#7c3aed;fill-opacity:1;stroke-width:0.424641"
         d="m -43.896736,77.326815 c -0.320837,-0.20323 -1.035179,-2.445594 -1.587428,-4.983031 -1.207838,-5.549692 -3.909871,-11.347662 -6.771822,-14.530839 -2.131563,-2.370812 -5.557246,-4.23871 -9.529301,-5.195974 -2.678522,-0.645524 -10.347196,-0.769613 -14.504523,-0.234704 -2.756027,0.354609 -2.845073,0.335981 -3.552128,-0.743122 -0.666187,-1.016731 -0.670335,-1.190637 -0.05094,-2.135958 0.952472,-1.453656 4.422031,-2.116029 10.888689,-2.078757 11.731599,0.06762 18.913431,3.885333 23.820121,12.662292 2.066694,3.696847 4.170305,10.101819 4.508994,13.728762 0.220548,2.361798 0.146651,2.825496 -0.529024,3.319561 -0.899273,0.657565 -1.850363,0.725302 -2.692641,0.19177 z"
         id="path15" /><path
         style="fill:#7c3aed;fill-opacity:1;stroke-width:0.424641"
         d="m 489.1866,78.944072 c -15.83473,-1.286434 -27.58642,-4.971631 -33.07311,-10.371355 -4.99861,-4.919383 -5.98226,-9.342107 -7.27062,-32.69054 -0.34796,-6.305921 -0.63299,-12.468526 -0.6334,-13.694677 l -7.4e-4,-2.229366 h 10.77866 10.77866 l 0.17855,15.393241 c 0.20695,17.841366 0.18012,17.709765 4.44716,21.809706 3.22787,3.101472 7.33207,5.049603 12.03467,5.71248 4.64706,0.655048 23.32802,0.668088 28.02632,0.01957 6.44631,-0.889806 13.0802,-5.087686 15.3623,-9.721153 0.96864,-1.966699 0.989,-2.283381 1.13217,-17.60828 l 0.14579,-15.605562 h 10.78872 10.78872 v 3.347598 c 0,4.338244 -1.15981,24.103503 -1.73004,29.482961 -0.55676,5.252437 -1.78506,10.097255 -3.15076,12.427639 -5.78074,9.864096 -31.62932,15.919113 -58.60305,13.72774 z"
         id="path16" /><path
         style="fill:#7c3aed;fill-opacity:1;stroke-width:0.424641"
         d="m 563.28648,49.258373 c 0,-28.713629 0.0165,-29.300239 0.82369,-29.300239 2.2236,0 16.55458,1.358314 18.18427,1.723536 5.10829,1.144792 6.86139,2.681741 27.20862,23.853908 8.24483,8.579107 15.98058,16.464896 17.19054,17.523972 l 2.19994,1.925591 7.65231,-7.757223 c 4.20878,-4.266473 12.76745,-13.049099 19.01927,-19.516947 11.775,-12.181877 14.73584,-14.68893 18.7131,-15.845097 1.7412,-0.506156 15.4212,-1.90774 18.62028,-1.90774 0.71339,0 0.75281,1.534649 0.75281,29.300239 v 29.300239 h -10.61603 c -5.83881,0 -10.65556,-0.04777 -10.70389,-0.10616 -0.0483,-0.05839 -0.19165,-7.132685 -0.31848,-15.720665 l -0.23062,-15.614502 -14.19312,14.765221 -14.19313,14.765221 -3.42948,0.276335 c -6.89753,0.555779 -17.68388,0.351051 -22.3865,-0.424904 l -4.51922,-0.745691 -6.48145,-6.77177 C 596.51331,58.46473 586.70833,48.833732 586.06746,48.833732 c -0.90472,0 -1.11654,3.230818 -1.12059,17.091806 l -0.004,12.633074 h -10.82835 -10.82835 z"
         id="path17" /><path
         style="fill:#7c3aed;fill-opacity:1;stroke-width:0.424641"
         d="M 44.162679,78.16167 C 28.936247,75.776644 20.034041,71.211 16.646009,64.049287 c -1.341472,-2.83564 -2.281948,-6.153579 -1.862996,-6.572532 0.165956,-0.165956 2.640325,-0.06681 5.498597,0.22033 10.182842,1.022952 17.461924,2.25057 21.757864,3.669465 8.631801,2.850975 31.681074,3.660086 36.295093,1.274083 2.469959,-1.277266 3.479641,-5.667932 1.710289,-7.437284 -0.467105,-0.467105 -1.026544,-0.849282 -1.243196,-0.849282 -0.216652,0 -1.793132,-0.190017 -3.50329,-0.42226 -1.710157,-0.232243 -9.224208,-0.806129 -16.697892,-1.275303 -25.433321,-1.596621 -32.088439,-2.462896 -36.728785,-4.780863 -3.782724,-1.889564 -4.349978,-2.97432 -4.588996,-8.775497 -0.264628,-6.422747 0.35005,-9.004096 2.684291,-11.272719 3.548854,-3.449091 11.162816,-6.600049 18.179767,-7.523506 5.243289,-0.690037 31.481102,-0.693732 36.661036,-0.0052 4.773701,0.634568 9.374497,2.127936 14.2342,4.620267 5.239958,2.687343 7.203562,4.550682 8.758271,8.311054 1.77238,4.286856 2.423218,6.641322 1.955545,7.074395 C 99.356699,40.674057 84.258426,39.40744 80.044856,38.65089 78.760317,38.42025 76.37171,37.511848 74.736842,36.632219 L 71.764354,35.032895 58.175837,34.896798 c -7.473684,-0.07485 -14.412767,-0.01355 -15.420184,0.13622 -5.004732,0.744059 -6.444403,6.66572 -2.063234,8.4865 2.016848,0.838187 7.759222,1.422881 20.917767,2.129869 21.918409,1.17764 29.785073,2.22035 34.571034,4.582316 3.252602,1.605223 4.28213,3.13273 5.20425,7.721518 0.65616,3.265259 0.47065,5.012322 -0.92968,8.755011 -1.274553,3.406565 -3.357125,5.617531 -6.951516,7.380106 C 86.771287,77.389979 78.81552,78.57046 61.785287,78.794815 51.055298,78.936173 48.52742,78.845351 44.162679,78.16167 Z"
         id="path18" /><path
         style="fill:#000000;fill-opacity:1;stroke-width:0.212;stroke-dasharray:none"
         d="M 48.236672,78.556587 C 40.841695,77.886325 31.692778,75.557675 26.656498,73.063841 20.274345,69.903568 16.892252,65.990958 15.167356,59.772509 c -0.632804,-2.281331 -0.655507,-2.233634 1.06311,-2.233634 1.850903,0 8.515366,0.694845 13.378314,1.39484 4.987546,0.717929 8.670418,1.45253 11.708621,2.33545 4.229358,1.229077 8.01531,1.880715 14.310589,2.463131 3.986967,0.368861 16.405788,0.37043 18.684211,0.0024 2.452105,-0.396126 3.936538,-0.851649 4.727228,-1.450625 1.588674,-1.20348 2.462063,-4.580234 1.635302,-6.322507 -0.66854,-1.408845 -1.458299,-1.723702 -5.300927,-2.11335 -4.510708,-0.457431 -7.166098,-0.661944 -16.879486,-1.30007 -26.535357,-1.743251 -32.099965,-2.500665 -37.001992,-5.03643 -1.875519,-0.970186 -3.128672,-2.234683 -3.524743,-3.55665 -0.802964,-2.680055 -0.820144,-10.046565 -0.02936,-12.588743 0.822718,-2.644833 3.273347,-4.934521 7.537333,-7.042331 5.300331,-2.620103 10.157121,-3.822343 16.882398,-4.179035 6.531589,-0.346418 30.00274,-0.119717 32.850554,0.317295 4.320244,0.662963 8.349029,1.950776 12.692209,4.057101 5.478992,2.657162 7.770609,4.582782 9.34704,7.854217 1.744001,3.619177 2.850063,7.474519 2.250651,7.844976 C 99.239831,40.378353 93.215919,39.991259 88.017806,39.480807 79.408521,38.63538 78.586129,38.438281 74.15881,36.159295 l -2.394456,-1.232561 h -14.86244 c -16.442432,0 -15.507751,-0.07546 -17.172836,1.386501 -1.736239,1.524438 -2.19066,3.755522 -1.132633,5.560911 1.357758,2.316838 4.068277,2.770981 23.188842,3.88526 14.533037,0.846932 19.878325,1.297496 25.292366,2.131939 7.509411,1.157391 11.563169,3.065259 12.996597,6.116737 0.7631,1.624503 1.31845,4.085776 1.4434,6.397121 0.1014,1.875708 0.0494,2.345954 -0.44574,4.034091 -1.475185,5.029055 -3.427237,7.410166 -7.900472,9.636974 -4.733662,2.356451 -11.03553,3.670435 -20.451642,4.264316 -4.742303,0.299101 -21.896537,0.450445 -24.483124,0.216003 z"
         id="path43" /><path
         style="fill:#000000;fill-opacity:1;stroke-width:0.212321"
         d="M 143.21023,57.751196 V 36.731459 h -18.04725 -18.04725 v -8.386662 -8.386663 h 47.34749 47.34749 v 8.386663 8.386662 h -18.47189 -18.47189 v 21.019737 21.019737 h -10.82835 -10.82835 z"
         id="path44" /></g></g></svg>
